<svg width="42" height="42" viewBox="0 0 42 42" fill="none" xmlns="http://www.w3.org/2000/svg">
<g clip-path="url(#clip0_517_1704)">
<path d="M7.434 0.529236H34.5576C38.6736 0.529236 41.9916 3.85563 41.9916 7.96323V34.0368C41.9916 38.1528 38.6652 41.4708 34.5576 41.4708H7.434C3.318 41.4708 0 38.1444 0 34.0368V7.96323C0 3.84723 3.3264 0.529236 7.434 0.529236Z" fill="#470137"/>
<path d="M22.0838 11.2897L16.8338 19.9501L22.4366 29.1397C22.4702 29.2069 22.487 29.2825 22.4702 29.3497C22.4534 29.4169 22.3862 29.3665 22.277 29.3833H18.2702C17.993 29.3833 17.7998 29.3665 17.6738 29.1901C17.3042 28.4509 16.9178 27.7369 16.5566 27.0061C16.187 26.2921 15.7838 25.5529 15.3638 24.7969C14.9438 24.0409 14.5238 23.2933 14.1038 22.5205H14.0702C13.7006 23.2765 13.2974 24.0241 12.8942 24.7801C12.491 25.5361 12.0878 26.2837 11.7014 27.0229C11.2982 27.7621 10.895 28.5097 10.4918 29.2321C10.4246 29.4085 10.2818 29.4253 10.0886 29.4253H6.24978C6.18258 29.4253 6.12378 29.4589 6.12378 29.3749C6.10698 29.3077 6.12378 29.2321 6.15738 29.1817L11.6006 20.2441L6.30018 11.2729C6.24978 11.2057 6.23298 11.1301 6.26658 11.0965C6.30018 11.0461 6.37578 11.0293 6.44298 11.0293H10.4162C10.5002 11.0293 10.5926 11.0461 10.6598 11.0629C10.727 11.0965 10.7858 11.1469 10.8362 11.2225C11.1722 11.9785 11.5502 12.7261 11.9534 13.4821C12.3734 14.2381 12.7766 14.9689 13.2134 15.7081C13.6334 16.4389 14.0198 17.1781 14.3894 17.9341H14.423C14.7926 17.1613 15.179 16.4137 15.557 15.6745C15.9434 14.9437 16.3466 14.2045 16.7498 13.4653C17.153 12.7345 17.5394 11.9785 17.9258 11.2645C17.9426 11.1973 17.9762 11.1217 18.035 11.0881C18.1022 11.0545 18.1778 11.0377 18.2618 11.0545H21.9578C22.0418 11.0377 22.1342 11.0881 22.151 11.1805C22.1594 11.1805 22.1174 11.2561 22.0838 11.2897Z" fill="#FF61F6"/>
<path d="M30.1727 29.7529C28.8791 29.7697 27.5855 29.5093 26.4095 28.9633C25.3091 28.4593 24.3935 27.6193 23.7635 26.5861C23.1167 25.5193 22.7975 24.1921 22.7975 22.5961C22.7807 21.3025 23.1167 20.0257 23.7635 18.9001C24.4271 17.7661 25.3931 16.8169 26.5439 16.1869C27.7703 15.5065 29.2403 15.1705 30.9707 15.1705C31.0547 15.1705 31.1807 15.1705 31.3403 15.1873C31.4999 15.2041 31.6763 15.2041 31.8863 15.2209V9.69373C31.8863 9.56773 31.9367 9.50053 32.0627 9.50053H35.6159C35.6999 9.48373 35.7755 9.55093 35.7923 9.62653C35.7923 9.64333 35.7923 9.66013 35.7923 9.66013V26.3173C35.7923 26.6365 35.8091 26.9809 35.8259 27.3673C35.8595 27.7369 35.8763 28.0813 35.8931 28.3837C35.8931 28.5097 35.8427 28.6105 35.7167 28.6609C34.8095 29.0473 33.8435 29.3245 32.8607 29.5009C31.9703 29.6605 31.0799 29.7529 30.1727 29.7529ZM31.8863 26.2501V18.5473C31.7267 18.5137 31.5671 18.4801 31.4159 18.4633C31.2227 18.4465 31.0295 18.4297 30.8363 18.4297C30.1559 18.4297 29.4671 18.5725 28.8623 18.8833C28.2659 19.1773 27.7619 19.6141 27.3755 20.1769C26.9891 20.7397 26.7959 21.4873 26.7959 22.4029C26.7791 23.0161 26.8799 23.6293 27.0899 24.2089C27.2663 24.6793 27.5267 25.0993 27.8795 25.4521C28.2155 25.7713 28.6187 26.0149 29.0723 26.1493C29.5427 26.3089 30.0383 26.3761 30.5255 26.3761C30.7859 26.3761 31.0295 26.3593 31.2647 26.3425C31.4831 26.3593 31.6763 26.3173 31.8863 26.2501Z" fill="#FF61F6"/>
</g>
<defs>
<clipPath id="clip0_517_1704">
<rect width="42" height="42" fill="white"/>
</clipPath>
</defs>
</svg>
